<mxfile host="app.diagrams.net" agent="Mozilla/5.0 (Windows NT 10.0; Win64; x64) AppleWebKit/537.36 (KHTML, like Gecko) Chrome/137.0.0.0 Safari/537.36" version="27.1.6">
  <diagram name="Page-1" id="J5-rP4-cnS5GMUFK8XIb">
    <mxGraphModel dx="872" dy="507" grid="1" gridSize="10" guides="1" tooltips="1" connect="1" arrows="1" fold="1" page="1" pageScale="1" pageWidth="827" pageHeight="1169" math="0" shadow="0">
      <root>
        <mxCell id="0" />
        <mxCell id="1" parent="0" />
        <mxCell id="shD59XOMQyAVOaGfIXMx-22" value="" style="edgeStyle=orthogonalEdgeStyle;rounded=0;orthogonalLoop=1;jettySize=auto;html=1;" edge="1" parent="1" source="shD59XOMQyAVOaGfIXMx-2" target="shD59XOMQyAVOaGfIXMx-18">
          <mxGeometry relative="1" as="geometry" />
        </mxCell>
        <mxCell id="shD59XOMQyAVOaGfIXMx-2" value="&lt;b&gt;GitHub repository&lt;/b&gt;" style="rounded=1;whiteSpace=wrap;html=1;" vertex="1" parent="1">
          <mxGeometry y="200" width="120" height="60" as="geometry" />
        </mxCell>
        <mxCell id="shD59XOMQyAVOaGfIXMx-6" style="edgeStyle=orthogonalEdgeStyle;rounded=0;orthogonalLoop=1;jettySize=auto;html=1;exitX=0.5;exitY=0;exitDx=0;exitDy=0;entryX=0.5;entryY=1;entryDx=0;entryDy=0;" edge="1" parent="1" source="shD59XOMQyAVOaGfIXMx-3" target="shD59XOMQyAVOaGfIXMx-2">
          <mxGeometry relative="1" as="geometry" />
        </mxCell>
        <mxCell id="shD59XOMQyAVOaGfIXMx-3" value="React App" style="rounded=1;whiteSpace=wrap;html=1;" vertex="1" parent="1">
          <mxGeometry y="310" width="120" height="60" as="geometry" />
        </mxCell>
        <mxCell id="shD59XOMQyAVOaGfIXMx-7" value="" style="edgeStyle=orthogonalEdgeStyle;rounded=0;orthogonalLoop=1;jettySize=auto;html=1;" edge="1" parent="1" source="shD59XOMQyAVOaGfIXMx-4" target="shD59XOMQyAVOaGfIXMx-2">
          <mxGeometry relative="1" as="geometry" />
        </mxCell>
        <mxCell id="shD59XOMQyAVOaGfIXMx-4" value="AWS IAM&amp;nbsp;&lt;div&gt;&lt;font style=&quot;font-size: 10px;&quot;&gt;ACCESS KEY,&amp;nbsp;&lt;/font&gt;&lt;/div&gt;&lt;div&gt;&lt;font style=&quot;font-size: 10px;&quot;&gt;ACCESS KEY ID&lt;/font&gt;&lt;/div&gt;" style="rounded=1;whiteSpace=wrap;html=1;" vertex="1" parent="1">
          <mxGeometry y="100" width="120" height="60" as="geometry" />
        </mxCell>
        <mxCell id="shD59XOMQyAVOaGfIXMx-8" value="Checkout code" style="rounded=1;whiteSpace=wrap;html=1;" vertex="1" parent="1">
          <mxGeometry x="160" y="180" width="70" height="40" as="geometry" />
        </mxCell>
        <mxCell id="shD59XOMQyAVOaGfIXMx-13" value="Install&amp;nbsp;&lt;div&gt;nodes&lt;/div&gt;" style="rounded=1;whiteSpace=wrap;html=1;" vertex="1" parent="1">
          <mxGeometry x="240" y="180" width="70" height="40" as="geometry" />
        </mxCell>
        <mxCell id="shD59XOMQyAVOaGfIXMx-14" value="Install&amp;nbsp;&lt;div&gt;dependencies&lt;/div&gt;" style="rounded=1;whiteSpace=wrap;html=1;" vertex="1" parent="1">
          <mxGeometry x="320" y="180" width="80" height="40" as="geometry" />
        </mxCell>
        <mxCell id="shD59XOMQyAVOaGfIXMx-15" value="build" style="rounded=1;whiteSpace=wrap;html=1;" vertex="1" parent="1">
          <mxGeometry x="413.5" y="180" width="70" height="40" as="geometry" />
        </mxCell>
        <mxCell id="shD59XOMQyAVOaGfIXMx-16" value="Configure AWS&lt;div&gt;Credential&lt;/div&gt;" style="rounded=1;whiteSpace=wrap;html=1;" vertex="1" parent="1">
          <mxGeometry x="490" y="180" width="90" height="40" as="geometry" />
        </mxCell>
        <mxCell id="shD59XOMQyAVOaGfIXMx-17" value="Sync build to S3" style="rounded=1;whiteSpace=wrap;html=1;" vertex="1" parent="1">
          <mxGeometry x="590" y="180" width="70" height="40" as="geometry" />
        </mxCell>
        <mxCell id="shD59XOMQyAVOaGfIXMx-25" value="" style="edgeStyle=orthogonalEdgeStyle;rounded=0;orthogonalLoop=1;jettySize=auto;html=1;" edge="1" parent="1" source="shD59XOMQyAVOaGfIXMx-18" target="shD59XOMQyAVOaGfIXMx-19">
          <mxGeometry relative="1" as="geometry" />
        </mxCell>
        <mxCell id="shD59XOMQyAVOaGfIXMx-18" value="" style="rounded=1;whiteSpace=wrap;html=1;fillColor=none;" vertex="1" parent="1">
          <mxGeometry x="144" y="155" width="540" height="150" as="geometry" />
        </mxCell>
        <mxCell id="shD59XOMQyAVOaGfIXMx-19" value="Amazon S3" style="sketch=0;outlineConnect=0;fontColor=#232F3E;gradientColor=none;strokeColor=#ffffff;fillColor=#232F3E;dashed=0;verticalLabelPosition=middle;verticalAlign=bottom;align=center;html=1;whiteSpace=wrap;fontSize=10;fontStyle=1;spacing=3;shape=mxgraph.aws4.productIcon;prIcon=mxgraph.aws4.s3;" vertex="1" parent="1">
          <mxGeometry x="720" y="180" width="80" height="100" as="geometry" />
        </mxCell>
        <mxCell id="shD59XOMQyAVOaGfIXMx-23" value="Ubuntu VM" style="rounded=1;whiteSpace=wrap;html=1;" vertex="1" parent="1">
          <mxGeometry x="160" y="250" width="500" height="30" as="geometry" />
        </mxCell>
        <mxCell id="shD59XOMQyAVOaGfIXMx-24" value="&lt;b&gt;Workflow&lt;/b&gt;" style="text;html=1;align=center;verticalAlign=middle;resizable=0;points=[];autosize=1;strokeColor=none;fillColor=none;" vertex="1" parent="1">
          <mxGeometry x="345" y="115" width="80" height="30" as="geometry" />
        </mxCell>
      </root>
    </mxGraphModel>
  </diagram>
</mxfile>
